<svg width="20" height="21" viewBox="0 0 20 21" fill="none" xmlns="http://www.w3.org/2000/svg">
<g clip-path="url(#clip0_1_4061)">
<g clip-path="url(#clip1_1_4061)">
<path d="M14.58 5.12001C13.34 4.92001 12.12 5.18001 11.08 5.86001C11.38 5.18001 11.88 4.56001 12.54 4.02001C13.32 3.36001 14.06 3.06001 14.06 3.06001C14.36 2.94001 14.52 2.60001 14.4 2.30001C14.28 1.98001 13.94 1.84001 13.64 1.96001C13.54 2.00001 12.06 2.58001 10.9 3.94001C10.86 3.74001 10.78 3.52001 10.7 3.30001C10.02 1.50001 8.10001 0.600007 8.02001 0.560007C7.88001 0.480007 7.72001 0.480007 7.56001 0.540007C7.40001 0.600007 7.28001 0.720007 7.22001 0.860007C7.20001 0.940007 6.38001 2.88001 7.06001 4.70001C7.14001 4.86001 7.20001 5.02001 7.28001 5.16001C6.68001 5.04001 6.06001 5.02001 5.42001 5.12001C2.66001 5.56001 0.780008 8.22001 1.20001 11.04C1.52001 13.06 1.96001 14.8 2.54001 16.18C3.20001 17.78 4.02001 18.94 5.00001 19.66C5.78001 20.22 6.64001 20.5 7.58001 20.5C7.84001 20.5 8.10001 20.48 8.38001 20.44C9.00001 20.34 9.54001 20.1 10 19.76C10.46 20.1 11 20.34 11.64 20.44C12.88 20.64 14.02 20.38 15 19.66C15.98 18.94 16.8 17.78 17.46 16.18C18.04 14.8 18.5 13.06 18.8 11.04C19.24 8.22001 17.34 5.56001 14.58 5.12001ZM8.12001 2.00001C8.62001 2.34001 9.28001 2.92001 9.60001 3.72001C9.90001 4.54001 9.80001 5.42001 9.66001 6.00001C9.16001 5.66001 8.50001 5.08001 8.18001 4.26001C7.88001 3.46001 7.98001 2.58001 8.12001 2.00001ZM17.62 10.86C17.02 14.84 15.86 17.54 14.3 18.68C13.56 19.22 12.76 19.4 11.82 19.26C11.24 19.16 10.8 18.94 10.44 18.54C10.32 18.42 10.16 18.36 10 18.36C9.84001 18.36 9.68001 18.42 9.56001 18.54C9.20001 18.94 8.76001 19.16 8.18001 19.26C7.24001 19.4 6.44001 19.22 5.70001 18.68C4.14001 17.54 2.98001 14.84 2.38001 10.86C2.04001 8.68001 3.50001 6.64001 5.62001 6.28001C5.82001 6.26001 6.02001 6.24001 6.22001 6.24001C7.04001 6.24001 7.84001 6.52001 8.52001 7.02001C9.40001 7.70001 10.62 7.70001 11.48 7.02001C12.32 6.38001 13.36 6.12001 14.38 6.28001C16.5 6.64001 17.96 8.68001 17.62 10.86Z" fill="black"/>
</g>
</g>
<defs>
<clipPath id="clip0_1_4061">
<rect width="20" height="20" fill="white" transform="translate(0 0.5)"/>
</clipPath>
<clipPath id="clip1_1_4061">
<rect width="20" height="20" fill="white" transform="translate(0 0.5)"/>
</clipPath>
</defs>
</svg>
