<svg width="20" height="21" viewBox="0 0 20 21" fill="none" xmlns="http://www.w3.org/2000/svg">
<g clip-path="url(#clip0_1_4137)">
<g clip-path="url(#clip1_1_4137)">
<path d="M19.46 5.36L15.14 1.04C14.8 0.7 14.34 0.5 13.84 0.5C13.36 0.5 12.88 0.7 12.54 1.04L9.42 4.16L6.38 5.16C5.92 5.3 5.6 5.68 5.54 6.16C5.48 6.64 5.68 7.1 6.08 7.36C6.1 7.38 6.14 7.4 6.16 7.42L0.54 13.04C-0.18 13.76 -0.18 14.92 0.54 15.64L4.86 19.96C5.2 20.3 5.66 20.5 6.16 20.5C6.66 20.5 7.12 20.3 7.46 19.96L12.6 14.82C13.06 15.08 13.48 15.32 13.84 15.48C14.02 15.56 14.2 15.62 14.38 15.62C14.56 15.62 14.76 15.56 14.92 15.48C15.28 15.32 15.52 15 15.6 14.62L16.36 11.06L19.46 7.96C20.18 7.24 20.18 6.08 19.46 5.36ZM6.6 19.1C6.48 19.22 6.32 19.3 6.16 19.3C5.98 19.3 5.82 19.22 5.72 19.1L1.4 14.78C1.14 14.54 1.14 14.14 1.4 13.9L7.14 8.16C8 8.86 8.92 9.82 9.22 10.88C9.6 12.24 10.58 13.3 11.6 14.12L6.6 19.1ZM14.42 14.38C14.42 14.38 14.42 14.4 14.4 14.4C14.38 14.4 14.38 14.4 14.36 14.4C13.36 13.92 10.96 12.56 10.38 10.54C9.86 8.74 8.12 7.28 6.74 6.36C6.74 6.36 6.72 6.34 6.74 6.32C6.74 6.3 6.74 6.3 6.76 6.3L9.58 5.38L15.16 10.94L14.42 14.38ZM12.14 6.22L13.84 4.52L15.98 6.66L14.28 8.36L12.14 6.22ZM18.6 7.1L15.82 9.9L15.14 9.22L17.26 7.08C17.38 6.98 17.44 6.82 17.44 6.66C17.44 6.5 17.38 6.34 17.26 6.22L14.28 3.24C14.16 3.12 14 3.06 13.84 3.06C13.68 3.06 13.52 3.12 13.42 3.24L11.28 5.36L10.6 4.68L13.4 1.9C13.52 1.78 13.68 1.7 13.84 1.7C14.02 1.7 14.18 1.78 14.3 1.9L18.6 6.2C18.86 6.46 18.86 6.86 18.6 7.1Z" fill="black"/>
</g>
</g>
<defs>
<clipPath id="clip0_1_4137">
<rect width="20" height="20" fill="white" transform="translate(0 0.5)"/>
</clipPath>
<clipPath id="clip1_1_4137">
<rect width="20" height="20" fill="white" transform="translate(0 0.5)"/>
</clipPath>
</defs>
</svg>
