
<svg width="20" height="21" viewBox="0 0 20 21" fill="none" xmlns="http://www.w3.org/2000/svg">
<g clip-path="url(#clip0_1_4081)">
<g clip-path="url(#clip1_1_4081)">
<path d="M10.617 3.53675C11.5498 3.8509 12.3222 4.78428 12.6996 5.31264C13.3115 6.16938 13.807 7.21153 14.1325 8.32645C14.2066 8.5804 14.4387 8.7452 14.6905 8.7452C14.7444 8.7452 14.7993 8.73761 14.8537 8.72175C15.1621 8.63172 15.3391 8.30882 15.249 8.00049C14.8874 6.76162 14.3331 5.5984 13.6461 4.63655C13.0854 3.85146 12.1691 2.83211 10.9882 2.4344C10.6839 2.33185 10.3539 2.49553 10.2514 2.79991C10.1489 3.10434 10.3126 3.43421 10.617 3.53675Z" fill="black"/>
<path d="M18.432 9.21758C18.3858 8.91707 18.1158 8.70318 17.8129 8.72621C17.68 8.73636 17.5603 8.7907 17.4678 8.87412L17.2973 9.02147C16.9556 7.05981 16.174 5.13402 15.0847 3.60897C13.6529 1.60413 11.847 0.5 9.99972 0.5C8.15266 0.5 6.34686 1.60413 4.9149 3.60906C3.82562 5.13421 3.04416 7.05995 2.7026 9.02152L2.53888 8.87998C2.44554 8.79312 2.32327 8.7364 2.18709 8.72598C1.88401 8.70318 1.61416 8.91707 1.56795 9.21758C1.45401 9.95922 1.39627 10.6966 1.39627 11.4092C1.39627 14.1866 2.26846 16.5175 3.91853 18.1501C5.45015 19.6655 7.61002 20.5 10.0002 20.5C12.3902 20.5 14.5499 19.6655 16.0815 18.1501C17.7315 16.5175 18.6037 14.1866 18.6037 11.4092C18.6037 10.6966 18.5459 9.95922 18.432 9.21758ZM5.86149 4.28509C7.06905 2.59431 8.53874 1.66317 9.99972 1.66317C11.4609 1.66317 12.9307 2.59431 14.1383 4.28505C15.2587 5.85379 16.0212 7.89408 16.2526 9.92451L15.32 10.7305L13.0397 8.7599C12.8213 8.57119 12.4975 8.57119 12.2791 8.75999L9.99972 10.7304L7.71996 8.75995C7.50161 8.57114 7.17773 8.57114 6.95934 8.75995L4.67953 10.7304L3.74741 9.9247C3.97855 7.89431 4.74099 5.85393 5.86149 4.28509ZM15.2634 17.3232C13.9511 18.6217 12.0819 19.3368 10.0002 19.3368C7.91835 19.3368 6.04909 18.6217 4.73666 17.3232C3.31234 15.9141 2.55944 13.8691 2.55944 11.4092C2.55944 11.0996 2.57135 10.7846 2.59513 10.4661L4.29917 11.9391C4.51752 12.1279 4.84135 12.1279 5.05979 11.9391L7.3396 9.96857L9.61941 11.9391C9.83781 12.1279 10.1616 12.1279 10.3801 11.9391L12.6594 9.96857L14.9397 11.9392C15.1581 12.1279 15.4819 12.1279 15.7003 11.9392L17.4048 10.4659C17.4286 10.7845 17.4405 11.0995 17.4405 11.4091C17.4406 13.869 16.6877 15.914 15.2634 17.3232Z" fill="black"/>
</g>
</g>
<defs>
<clipPath id="clip0_1_4081">
<rect width="20" height="20" fill="white" transform="translate(0 0.5)"/>
</clipPath>
<clipPath id="clip1_1_4081">
<rect width="20" height="20" fill="white" transform="translate(0 0.5)"/>
</clipPath>
</defs>
</svg>
